<?xml version="1.0" standalone="no"?>
<!DOCTYPE svg PUBLIC "-//W3C//DTD SVG 20010904//EN"
 "http://www.w3.org/TR/2001/REC-SVG-20010904/DTD/svg10.dtd">
<svg version="1.0" xmlns="http://www.w3.org/2000/svg"
 width="290.000000pt" height="290.000000pt" viewBox="0 0 290.000000 290.000000"
 preserveAspectRatio="xMidYMid meet">
<metadata>
Created by potrace 1.14, written by Peter Selinger 2001-2017
</metadata>
<g transform="translate(0.000000,290.000000) scale(0.100000,-0.100000)"
fill="#000000" stroke="none">
<path d="M1456 2179 c-8 -12 -28 -30 -45 -40 -21 -13 -31 -27 -31 -43 0 -13
-7 -29 -15 -36 -8 -7 -15 -20 -15 -29 0 -9 -14 -34 -30 -55 -17 -22 -30 -45
-30 -52 0 -7 -10 -25 -23 -41 -13 -15 -34 -50 -47 -78 -12 -27 -36 -61 -52
-75 -24 -21 -32 -41 -47 -115 -29 -138 -54 -196 -101 -231 -22 -16 -49 -49
-62 -76 -18 -37 -38 -57 -88 -90 -60 -40 -102 -88 -181 -208 l-16 -24 -37 57
c-20 32 -42 60 -50 63 -7 3 -22 20 -32 39 -10 18 -28 39 -41 46 -21 11 -27 10
-49 -14 -14 -15 -29 -27 -34 -27 -18 0 -82 -64 -126 -125 -24 -34 -94 -109
-156 -165 -62 -57 -121 -116 -131 -132 l-19 -28 1453 0 c1449 0 1452 0 1434
20 -10 11 -39 32 -64 46 -67 39 -130 100 -175 167 -27 40 -51 65 -76 76 -21 9
-54 28 -74 41 -35 23 -49 44 -116 169 -21 38 -31 47 -57 49 -27 3 -40 -5 -92
-58 -49 -49 -64 -59 -78 -51 -10 5 -53 45 -95 89 -68 69 -78 84 -78 115 0 20
5 39 10 42 5 3 10 15 10 25 0 14 -18 29 -59 50 -71 35 -85 54 -112 145 -11 39
-30 85 -40 104 -11 18 -26 65 -35 104 -17 83 -46 138 -83 160 -15 9 -36 32
-46 52 -11 19 -28 38 -37 41 -10 3 -18 10 -18 15 0 17 -71 99 -86 99 -7 0 -20
-10 -28 -21z m52 -21 c11 -13 35 -62 52 -110 18 -49 34 -88 37 -88 2 0 2 8 0
18 -14 50 -16 72 -8 72 5 0 14 -13 21 -30 7 -16 27 -38 45 -49 45 -26 66 -70
76 -161 5 -42 15 -94 23 -116 14 -36 15 -37 15 -11 1 42 18 24 36 -41 37 -132
40 -138 111 -171 35 -16 64 -32 64 -34 0 -2 -11 -31 -25 -65 -26 -65 -31 -87
-16 -77 5 3 12 -4 16 -15 3 -11 10 -20 15 -20 5 0 7 7 4 15 -13 33 17 11 95
-70 45 -47 79 -90 76 -95 -3 -6 -21 -10 -38 -10 -24 0 -28 -3 -17 -10 25 -16
-15 -13 -57 5 -20 8 -37 14 -39 13 -1 -2 16 -18 38 -37 l40 -34 57 27 56 26
-50 -46 c-27 -26 -85 -73 -127 -105 -89 -68 -101 -83 -58 -67 67 23 33 0 -95
-65 -101 -52 -142 -68 -167 -65 l-33 3 67 50 c36 27 65 52 63 53 -2 2 -20 -1
-41 -8 -30 -10 -38 -10 -45 1 -20 32 -5 53 46 65 l50 12 -47 1 c-26 0 -50 5
-53 11 -3 6 36 10 102 12 l108 3 -60 19 c-33 10 -80 27 -104 39 -43 20 -46 20
-90 3 -25 -10 -73 -24 -105 -32 -33 -9 -69 -20 -80 -26 -11 -6 -34 -14 -51
-18 -16 -4 -39 -11 -50 -15 -17 -6 -17 -4 4 14 13 12 34 21 46 21 14 0 58 28
107 66 45 36 97 73 115 82 30 14 35 14 93 -12 77 -35 90 -27 20 11 -29 15 -67
38 -86 51 -19 12 -43 22 -52 22 -9 0 -84 -33 -167 -74 -82 -40 -179 -84 -215
-96 -36 -13 -76 -31 -90 -40 -45 -30 -55 -33 -33 -9 33 34 144 102 258 157 55
27 116 59 135 71 l35 23 -34 -6 c-49 -9 -26 14 55 54 53 26 74 31 106 27 30
-4 38 -3 29 6 -6 6 -35 14 -64 17 l-52 6 39 8 c31 7 48 4 84 -13 24 -12 46
-20 48 -18 2 2 -21 19 -51 39 -52 34 -56 35 -107 26 -29 -5 -67 -18 -84 -29
-17 -10 -62 -30 -100 -42 -38 -13 -78 -28 -89 -32 -42 -18 6 24 53 46 26 12
72 38 102 57 30 20 80 44 110 54 l55 18 -72 -3 c-40 -1 -73 -1 -73 0 0 2 11
21 25 43 14 22 25 55 25 74 0 36 -21 62 -42 50 -7 -4 -6 1 4 11 22 23 57 14
104 -27 l37 -32 -21 40 c-11 22 -39 64 -61 92 -47 59 -49 66 -18 57 l22 -6
-24 20 c-26 23 -52 26 -84 10 l-22 -11 22 22 c26 28 66 29 101 3 15 -11 33
-23 40 -27 25 -15 -5 29 -38 57 -36 31 -38 37 -7 29 20 -5 21 -4 8 12 -11 13
-26 17 -58 14 -37 -3 -41 -1 -26 9 27 21 77 15 118 -12 59 -41 54 -21 -12 45
-44 44 -67 60 -87 60 -16 0 -25 4 -21 10 3 6 21 10 38 10 30 1 31 1 13 15 -11
8 -34 16 -50 16 -17 1 -24 3 -14 6 12 3 17 19 20 61 2 31 2 59 1 62 -9 10 -38
-19 -44 -45 -5 -15 -17 -37 -27 -49 -32 -35 -54 -84 -39 -89 7 -3 -9 -25 -41
-56 -59 -58 -84 -119 -44 -109 12 4 22 3 22 -2 0 -9 -64 -68 -98 -90 -18 -12
-28 -35 -42 -102 -27 -118 -47 -175 -81 -229 -35 -56 -37 -73 -6 -64 21 6 21
5 -3 -16 -14 -11 -52 -35 -85 -51 -109 -55 -163 -97 -205 -160 -40 -60 -58
-104 -47 -114 3 -3 41 18 84 46 l78 52 -105 -101 c-98 -94 -217 -187 -227
-177 -3 2 22 38 55 80 33 41 63 90 67 108 17 77 139 214 231 261 51 26 107 77
85 77 -15 0 -5 37 17 63 11 13 18 14 23 6 14 -24 48 55 75 171 33 147 36 155
79 182 34 23 45 38 25 38 -17 0 38 98 65 116 18 12 23 22 19 39 -3 14 3 32 18
51 22 26 50 75 82 142 6 12 19 25 28 28 9 3 20 14 23 25 8 25 17 24 43 -3z
m840 -920 c5 -7 16 -32 22 -55 7 -23 17 -40 21 -37 5 3 18 -16 30 -41 12 -25
25 -45 30 -45 5 0 9 -6 9 -14 0 -7 21 -21 48 -31 57 -21 92 -42 92 -56 0 -6
-8 -5 -22 2 -20 10 -18 7 6 -20 17 -17 26 -31 20 -31 -5 0 8 -11 30 -24 45
-28 127 -106 121 -116 -2 -3 18 -14 46 -24 95 -35 42 -48 -85 -22 -79 17 -94
26 -45 27 l34 0 -40 16 c-55 21 -262 66 -307 66 -27 1 -35 4 -27 12 5 5 53 10
109 10 55 0 92 3 82 7 -9 4 -26 7 -38 7 -11 1 -29 8 -40 16 -18 15 -17 16 16
10 30 -5 32 -4 16 6 -11 7 -51 14 -89 17 -62 4 -68 6 -52 18 10 8 33 14 49 15
26 0 28 2 11 8 -36 15 -155 -26 -197 -67 -44 -42 -50 -34 -11 16 26 34 133 92
170 92 13 0 14 3 5 12 -9 9 -22 9 -58 0 -26 -7 -49 -11 -51 -9 -2 3 9 15 25
29 16 13 34 37 39 54 6 17 17 28 26 28 15 -2 15 1 2 27 -18 33 -19 43 -5 34
16 -10 11 22 -6 39 -20 21 -20 21 -65 -15 -47 -37 -50 -32 -8 16 32 36 68 46
87 23z m-1836 -70 c8 -7 25 -30 38 -51 12 -21 25 -35 28 -32 3 3 23 -22 45
-56 40 -63 43 -86 6 -53 l-21 19 17 -40 16 -40 -43 -37 c-40 -35 -98 -65 -98
-51 0 4 10 18 23 32 21 25 21 25 0 8 -18 -15 -29 -17 -65 -10 l-43 9 35 18
c19 10 47 31 62 47 29 32 25 38 -10 13 -20 -14 -22 -14 -22 1 0 9 5 26 11 37
10 19 9 20 -17 14 l-29 -6 33 27 c18 16 32 34 32 41 0 6 4 12 9 12 6 0 6 12 0
30 -6 17 -14 30 -17 30 -18 0 -73 -49 -86 -78 -9 -18 -20 -31 -25 -27 -5 3
-30 -21 -55 -53 -41 -51 -176 -155 -176 -134 0 4 22 26 49 50 28 23 80 83 117
132 52 70 76 94 110 109 25 11 44 27 44 35 0 19 11 20 32 4z"/>
<path d="M1776 1558 c16 -26 30 -45 32 -43 6 6 -26 60 -43 75 -10 8 -5 -6 11
-32z"/>
<path d="M1760 1526 c0 -11 53 -126 57 -123 6 6 -37 116 -48 122 -5 4 -9 4 -9
1z"/>
<path d="M1801 1162 c5 -13 109 -125 109 -117 0 13 -23 51 -49 78 -28 31 -66
55 -60 39z"/>
<path d="M1950 1074 c0 -16 55 -77 66 -73 6 2 -7 22 -28 43 -21 22 -38 35 -38
30z"/>
</g>
</svg>
